<?xml version="1.0" encoding="UTF-8" standalone="no"?>
<!DOCTYPE svg PUBLIC "-//W3C//DTD SVG 1.1//EN"
 "http://www.w3.org/Graphics/SVG/1.1/DTD/svg11.dtd">
<!-- Generated by graphviz version 14.1.4 (20260321.0153)
 -->
<!-- Title: VECTORDB_BRAIN_ColBERT_Proforma Pages: 1 -->
<svg width="1642pt" height="1254pt"
 viewBox="0.00 0.00 1642.00 1254.00" xmlns="http://www.w3.org/2000/svg" xmlns:xlink="http://www.w3.org/1999/xlink">
<g id="graph0" class="graph" transform="scale(1 1) rotate(0) translate(4 1250.32)">
<title>VECTORDB_BRAIN_ColBERT_Proforma</title>
<polygon fill="white" stroke="none" points="-4,4 -4,-1250.32 1638,-1250.32 1638,4 -4,4"/>
<text xml:space="preserve" text-anchor="middle" x="817" y="-1231.87" font-family="Helvetica,sans-Serif" font-size="11.00">VECTORDB&#45;BRAIN — pro&#45;forma: episodic multi&#45;layer memory with ColBERT multivector search (hypothetical)</text>
<g id="clust1" class="cluster">
<title>cluster_legend</title>
<polygon fill="#fafafa" stroke="#999999" points="200,-1131.07 200,-1204.57 784,-1204.57 784,-1131.07 200,-1131.07"/>
<text xml:space="preserve" text-anchor="middle" x="492" y="-1190.12" font-family="Helvetica,sans-Serif" font-size="11.00">Legend</text>
</g>
<g id="clust2" class="cluster">
<title>cluster_l1</title>
<polygon fill="#fff3e0" stroke="#e65100" points="984,-1027.06 984,-1216.82 1254,-1216.82 1254,-1027.06 984,-1027.06"/>
<text xml:space="preserve" text-anchor="middle" x="1119" y="-1202.37" font-family="Helvetica,sans-Serif" font-size="11.00">Layer 0 / 1 — raw read&#45;only corpus (evidence locker)</text>
</g>
<g id="clust3" class="cluster">
<title>cluster_index_proforma</title>
<polygon fill="#fff8e1" stroke="#f9a825" points="8,-834.81 8,-998.56 281,-998.56 281,-834.81 8,-834.81"/>
<text xml:space="preserve" text-anchor="middle" x="144.5" y="-984.11" font-family="Helvetica,sans-Serif" font-size="11.00">Indexing strategies (pro&#45;forma — pluggable adapters)</text>
</g>
<g id="clust4" class="cluster">
<title>cluster_colbert_search</title>
<polygon fill="#e8f5e9" stroke="#2e7d32" points="359,-309.74 359,-737.06 723,-737.06 723,-309.74 359,-309.74"/>
<text xml:space="preserve" text-anchor="middle" x="541" y="-722.61" font-family="Helvetica,sans-Serif" font-size="11.00">Search with ColBERT multivectors (pro&#45;forma online path)</text>
</g>
<g id="clust5" class="cluster">
<title>cluster_l2</title>
<polygon fill="#e3f2fd" stroke="#1565c0" points="1083,-310.37 1083,-391.87 1563,-391.87 1563,-310.37 1083,-310.37"/>
<text xml:space="preserve" text-anchor="middle" x="1323" y="-377.42" font-family="Helvetica,sans-Serif" font-size="11.00">Layer 2 — episodic session memory (read/write during session)</text>
</g>
<g id="clust6" class="cluster">
<title>cluster_reactive</title>
<polygon fill="#f3e5f5" stroke="#6a1b9a" points="747,-794.81 747,-998.56 1015,-998.56 1015,-794.81 747,-794.81"/>
<text xml:space="preserve" text-anchor="middle" x="881" y="-984.11" font-family="Helvetica,sans-Serif" font-size="11.00">Reactive logical processing (query&#45;time)</text>
</g>
<g id="clust7" class="cluster">
<title>cluster_l3</title>
<polygon fill="#eceff1" stroke="#455a64" points="720,-8 720,-170.5 997,-170.5 997,-8 720,-8"/>
<text xml:space="preserve" text-anchor="middle" x="858.5" y="-156.05" font-family="Helvetica,sans-Serif" font-size="11.00">Layer 3 — durable graph &amp; aggregates (post&#45;episodic)</text>
</g>
<g id="clust8" class="cluster">
<title>cluster_dream</title>
<polygon fill="#fce4ec" stroke="#ad1457" points="731,-199 731,-400.98 1075,-400.98 1075,-199 731,-199"/>
<text xml:space="preserve" text-anchor="middle" x="903" y="-386.53" font-family="Helvetica,sans-Serif" font-size="11.00">Dreaming / consolidation (async)</text>
</g>
<!-- LegSync -->
<g id="node1" class="node">
<title>LegSync</title>
<text xml:space="preserve" text-anchor="middle" x="272" y="-1153.57" font-family="Helvetica,sans-Serif" font-size="10.00">Solid = sync / online path</text>
</g>
<!-- LegAsync -->
<g id="node2" class="node">
<title>LegAsync</title>
<text xml:space="preserve" text-anchor="middle" x="450" y="-1153.57" font-family="Helvetica,sans-Serif" font-size="10.00">Dashed = async / episodic consolidation</text>
</g>
<!-- LegPro -->
<g id="node3" class="node">
<title>LegPro</title>
<text xml:space="preserve" text-anchor="middle" x="670" y="-1153.57" font-family="Helvetica,sans-Serif" font-size="10.00">Orange border = pro&#45;forma (not implemented)</text>
</g>
<!-- Sources -->
<g id="node4" class="node">
<title>Sources</title>
<path fill="none" stroke="black" d="M1097.5,-1181.82C1097.5,-1184.85 1078.45,-1187.32 1055,-1187.32 1031.55,-1187.32 1012.5,-1184.85 1012.5,-1181.82 1012.5,-1181.82 1012.5,-1132.32 1012.5,-1132.32 1012.5,-1129.28 1031.55,-1126.82 1055,-1126.82 1078.45,-1126.82 1097.5,-1129.28 1097.5,-1132.32 1097.5,-1132.32 1097.5,-1181.82 1097.5,-1181.82"/>
<path fill="none" stroke="black" d="M1097.5,-1181.82C1097.5,-1178.78 1078.45,-1176.32 1055,-1176.32 1031.55,-1176.32 1012.5,-1178.78 1012.5,-1181.82"/>
<text xml:space="preserve" text-anchor="middle" x="1055" y="-1165.57" font-family="Helvetica,sans-Serif" font-size="10.00">data/sources</text>
<text xml:space="preserve" text-anchor="middle" x="1055" y="-1153.57" font-family="Helvetica,sans-Serif" font-size="10.00">.md · .txt · .pdf</text>
<text xml:space="preserve" text-anchor="middle" x="1055" y="-1141.57" font-family="Helvetica,sans-Serif" font-size="10.00">(immutable RO)</text>
</g>
<!-- Chunker -->
<g id="node5" class="node">
<title>Chunker</title>
<ellipse fill="none" stroke="black" cx="1105" cy="-1057.69" rx="87.15" ry="22.63"/>
<text xml:space="preserve" text-anchor="middle" x="1105" y="-1060.19" font-family="Helvetica,sans-Serif" font-size="10.00">Ingest pipeline</text>
<text xml:space="preserve" text-anchor="middle" x="1105" y="-1048.19" font-family="Helvetica,sans-Serif" font-size="10.00">chunk · normalize · hash</text>
</g>
<!-- Sources&#45;&gt;Chunker -->
<g id="edge1" class="edge">
<title>Sources&#45;&gt;Chunker</title>
<path fill="none" stroke="#333333" d="M1057.67,-1126.44C1057.67,-1126.44 1057.67,-1088.62 1057.67,-1088.62"/>
<polygon fill="#333333" stroke="#333333" points="1061.17,-1088.62 1057.67,-1078.62 1054.17,-1088.62 1061.17,-1088.62"/>
<text xml:space="preserve" text-anchor="middle" x="1084.38" y="-1100.27" font-family="Helvetica,sans-Serif" font-size="9.00">read</text>
</g>
<!-- DualWrite -->
<g id="node9" class="node">
<title>DualWrite</title>
<ellipse fill="none" stroke="#e65100" stroke-width="2" cx="191" cy="-946.43" rx="82.38" ry="22.63"/>
<text xml:space="preserve" text-anchor="middle" x="191" y="-948.93" font-family="Helvetica,sans-Serif" font-size="10.00">Index orchestrator</text>
<text xml:space="preserve" text-anchor="middle" x="191" y="-936.93" font-family="Helvetica,sans-Serif" font-size="10.00">dual&#45;write or policy flag</text>
</g>
<!-- Chunker&#45;&gt;DualWrite -->
<g id="edge3" class="edge">
<title>Chunker&#45;&gt;DualWrite</title>
<path fill="none" stroke="#333333" d="M1017.39,-1058C797.72,-1058 240.94,-1058 240.94,-1058 240.94,-1058 240.94,-976.62 240.94,-976.62"/>
<polygon fill="#333333" stroke="#333333" points="244.44,-976.62 240.94,-966.62 237.44,-976.62 244.44,-976.62"/>
<text xml:space="preserve" text-anchor="middle" x="662.62" y="-1008.51" font-family="Helvetica,sans-Serif" font-size="9.00">chunks</text>
</g>
<!-- Dream -->
<g id="node26" class="node">
<title>Dream</title>
<ellipse fill="none" stroke="black" stroke-dasharray="5,2" cx="979" cy="-229.63" rx="87.68" ry="22.63"/>
<text xml:space="preserve" text-anchor="middle" x="979" y="-232.13" font-family="Helvetica,sans-Serif" font-size="10.00">Sandman / reconciler</text>
<text xml:space="preserve" text-anchor="middle" x="979" y="-220.13" font-family="Helvetica,sans-Serif" font-size="10.00">compare L1 vs L2 traces</text>
</g>
<!-- Chunker&#45;&gt;Dream -->
<g id="edge29" class="edge">
<title>Chunker&#45;&gt;Dream</title>
<path fill="none" stroke="#333333" stroke-dasharray="5,2" d="M1134.4,-1036.21C1134.4,-933.9 1134.4,-501 1134.4,-501 1134.4,-501 913.81,-501 913.81,-501 913.81,-501 913.81,-256.51 913.81,-256.51"/>
<polygon fill="#333333" stroke="#333333" points="917.31,-256.51 913.81,-246.51 910.31,-256.51 917.31,-256.51"/>
<text xml:space="preserve" text-anchor="middle" x="1608.5" y="-622.38" font-family="Helvetica,sans-Serif" font-size="9.00">L1 metadata</text>
</g>
<!-- Manifest -->
<g id="node6" class="node">
<title>Manifest</title>
<path fill="none" stroke="black" stroke-dasharray="5,2" d="M1212.5,-1175.07C1212.5,-1177.27 1190.76,-1179.07 1164,-1179.07 1137.24,-1179.07 1115.5,-1177.27 1115.5,-1175.07 1115.5,-1175.07 1115.5,-1139.07 1115.5,-1139.07 1115.5,-1136.86 1137.24,-1135.07 1164,-1135.07 1190.76,-1135.07 1212.5,-1136.86 1212.5,-1139.07 1212.5,-1139.07 1212.5,-1175.07 1212.5,-1175.07"/>
<path fill="none" stroke="black" stroke-dasharray="5,2" d="M1212.5,-1175.07C1212.5,-1172.86 1190.76,-1171.07 1164,-1171.07 1137.24,-1171.07 1115.5,-1172.86 1115.5,-1175.07"/>
<text xml:space="preserve" text-anchor="middle" x="1164" y="-1159.57" font-family="Helvetica,sans-Serif" font-size="10.00">Manifest / curation</text>
<text xml:space="preserve" text-anchor="middle" x="1164" y="-1147.57" font-family="Helvetica,sans-Serif" font-size="10.00">(provenance)</text>
</g>
<!-- Manifest&#45;&gt;Chunker -->
<g id="edge2" class="edge">
<title>Manifest&#45;&gt;Chunker</title>
<path fill="none" stroke="#333333" stroke-dasharray="5,2" d="M1153.83,-1135.01C1153.83,-1135.01 1153.83,-1088.18 1153.83,-1088.18"/>
<polygon fill="#333333" stroke="#333333" points="1157.33,-1088.18 1153.83,-1078.18 1150.33,-1088.18 1157.33,-1088.18"/>
<text xml:space="preserve" text-anchor="middle" x="1132.25" y="-1100.27" font-family="Helvetica,sans-Serif" font-size="9.00">govern</text>
</g>
<!-- DenseIdx -->
<g id="node7" class="node">
<title>DenseIdx</title>
<path fill="none" stroke="black" d="M882.38,-740.31C882.38,-743.34 853.07,-745.81 817,-745.81 780.93,-745.81 751.62,-743.34 751.62,-740.31 751.62,-740.31 751.62,-690.81 751.62,-690.81 751.62,-687.77 780.93,-685.31 817,-685.31 853.07,-685.31 882.38,-687.77 882.38,-690.81 882.38,-690.81 882.38,-740.31 882.38,-740.31"/>
<path fill="none" stroke="black" d="M882.38,-740.31C882.38,-737.27 853.07,-734.81 817,-734.81 780.93,-734.81 751.62,-737.27 751.62,-740.31"/>
<text xml:space="preserve" text-anchor="middle" x="817" y="-724.06" font-family="Helvetica,sans-Serif" font-size="10.00">Dense index</text>
<text xml:space="preserve" text-anchor="middle" x="817" y="-712.06" font-family="Helvetica,sans-Serif" font-size="10.00">(single vector / chunk)</text>
<text xml:space="preserve" text-anchor="middle" x="817" y="-700.06" font-family="Helvetica,sans-Serif" font-size="10.00">[current: MiniLM + Qdrant]</text>
</g>
<!-- Rerank -->
<g id="node15" class="node">
<title>Rerank</title>
<ellipse fill="none" stroke="#1b5e20" stroke-width="2" stroke-dasharray="5,2" cx="838" cy="-542.89" rx="106.77" ry="23.16"/>
<text xml:space="preserve" text-anchor="middle" x="838" y="-545.77" font-family="Helvetica,sans-Serif" font-size="10.00">Optional fusion</text>
<text xml:space="preserve" text-anchor="middle" x="838" y="-533.77" font-family="Helvetica,sans-Serif" font-size="10.00">ColBERT ⊕ dense ⊕ filters</text>
</g>
<!-- DenseIdx&#45;&gt;Rerank -->
<g id="edge15" class="edge">
<title>DenseIdx&#45;&gt;Rerank</title>
<path fill="none" stroke="#333333" stroke-dasharray="5,2" d="M817,-685.08C817,-685.08 817,-577.93 817,-577.93"/>
<polygon fill="#333333" stroke="#333333" points="820.5,-577.93 817,-567.93 813.5,-577.93 820.5,-577.93"/>
<text xml:space="preserve" text-anchor="middle" x="852" y="-622.38" font-family="Helvetica,sans-Serif" font-size="9.00">dense top&#45;k</text>
</g>
<!-- ColBERTIdx -->
<g id="node8" class="node">
<title>ColBERTIdx</title>
<path fill="none" stroke="#e65100" stroke-width="2" d="M423.25,-859.56C423.25,-862.59 393.11,-865.06 356,-865.06 318.89,-865.06 288.75,-862.59 288.75,-859.56 288.75,-859.56 288.75,-810.06 288.75,-810.06 288.75,-807.02 318.89,-804.56 356,-804.56 393.11,-804.56 423.25,-807.02 423.25,-810.06 423.25,-810.06 423.25,-859.56 423.25,-859.56"/>
<path fill="none" stroke="#e65100" stroke-width="2" d="M423.25,-859.56C423.25,-856.52 393.11,-854.06 356,-854.06 318.89,-854.06 288.75,-856.52 288.75,-859.56"/>
<text xml:space="preserve" text-anchor="middle" x="356" y="-843.31" font-family="Helvetica,sans-Serif" font-size="10.00">ColBERT multivector index</text>
<text xml:space="preserve" text-anchor="middle" x="356" y="-831.31" font-family="Helvetica,sans-Serif" font-size="10.00">(token vectors / chunk)</text>
<text xml:space="preserve" text-anchor="middle" x="356" y="-819.31" font-family="Helvetica,sans-Serif" font-size="10.00">MaxSim&#45;ready store</text>
</g>
<!-- MaxSim -->
<g id="node14" class="node">
<title>MaxSim</title>
<ellipse fill="none" stroke="#1b5e20" stroke-width="2" cx="611" cy="-625.68" rx="104.12" ry="22.63"/>
<text xml:space="preserve" text-anchor="middle" x="611" y="-628.18" font-family="Helvetica,sans-Serif" font-size="10.00">Late interaction scorer</text>
<text xml:space="preserve" text-anchor="middle" x="611" y="-616.18" font-family="Helvetica,sans-Serif" font-size="10.00">MaxSim(q, doc token vectors)</text>
</g>
<!-- ColBERTIdx&#45;&gt;MaxSim -->
<g id="edge13" class="edge">
<title>ColBERTIdx&#45;&gt;MaxSim</title>
<path fill="none" stroke="#333333" d="M416.58,-805.77C416.58,-748.4 416.58,-626 416.58,-626 416.58,-626 494.59,-626 494.59,-626"/>
<polygon fill="#333333" stroke="#333333" points="494.59,-629.5 504.59,-626 494.59,-622.5 494.59,-629.5"/>
<text xml:space="preserve" text-anchor="middle" x="450" y="-712.26" font-family="Helvetica,sans-Serif" font-size="9.00">retrieve candidates</text>
</g>
<!-- ColBERTSim -->
<g id="node27" class="node">
<title>ColBERTSim</title>
<ellipse fill="none" stroke="#ad1457" stroke-width="2" stroke-dasharray="5,2" cx="822" cy="-340.37" rx="82.91" ry="31.11"/>
<text xml:space="preserve" text-anchor="middle" x="822" y="-348.87" font-family="Helvetica,sans-Serif" font-size="10.00">ColBERT pairwise</text>
<text xml:space="preserve" text-anchor="middle" x="822" y="-336.87" font-family="Helvetica,sans-Serif" font-size="10.00">chunk↔chunk MaxSim</text>
<text xml:space="preserve" text-anchor="middle" x="822" y="-324.87" font-family="Helvetica,sans-Serif" font-size="10.00">(edge proposals)</text>
</g>
<!-- ColBERTIdx&#45;&gt;ColBERTSim -->
<g id="edge28" class="edge">
<title>ColBERTIdx&#45;&gt;ColBERTSim</title>
<path fill="none" stroke="#ad1457" stroke-width="2" stroke-dasharray="5,2" d="M327.86,-803.75C327.86,-699.27 327.86,-367 327.86,-367 327.86,-367 762.49,-367 762.49,-367"/>
<polygon fill="#ad1457" stroke="#ad1457" stroke-width="2" points="762.49,-370.5 772.49,-367 762.49,-363.5 762.49,-370.5"/>
</g>
<!-- DualWrite&#45;&gt;DenseIdx -->
<g id="edge4" class="edge">
<title>DualWrite&#45;&gt;DenseIdx</title>
<path fill="none" stroke="#333333" d="M191,-923.07C191,-864.49 191,-716 191,-716 191,-716 739.68,-716 739.68,-716"/>
<polygon fill="#333333" stroke="#333333" points="739.68,-719.5 749.68,-716 739.68,-712.5 739.68,-719.5"/>
<text xml:space="preserve" text-anchor="middle" x="484.5" y="-836.76" font-family="Helvetica,sans-Serif" font-size="9.00">embed once</text>
<text xml:space="preserve" text-anchor="middle" x="484.5" y="-826.26" font-family="Helvetica,sans-Serif" font-size="9.00">[current]</text>
</g>
<!-- DualWrite&#45;&gt;ColBERTIdx -->
<g id="edge5" class="edge">
<title>DualWrite&#45;&gt;ColBERTIdx</title>
<path fill="none" stroke="#e65100" stroke-width="2" d="M270.1,-939C293.08,-939 312.12,-939 312.12,-939 312.12,-939 312.12,-878.53 312.12,-878.53"/>
<polygon fill="#e65100" stroke="#e65100" stroke-width="2" points="315.63,-878.53 312.13,-868.53 308.63,-878.53 315.63,-878.53"/>
<text xml:space="preserve" text-anchor="middle" x="185.75" y="-897.26" font-family="Helvetica,sans-Serif" font-size="9.00">token multivectors</text>
<text xml:space="preserve" text-anchor="middle" x="185.75" y="-886.76" font-family="Helvetica,sans-Serif" font-size="9.00">[pro&#45;forma]</text>
</g>
<!-- User -->
<g id="node10" class="node">
<title>User</title>
<ellipse fill="none" stroke="black" cx="452" cy="-542.89" rx="42.09" ry="18"/>
<text xml:space="preserve" text-anchor="middle" x="452" y="-539.39" font-family="Helvetica,sans-Serif" font-size="10.00">User / agent</text>
</g>
<!-- UI -->
<g id="node11" class="node">
<title>UI</title>
<ellipse fill="none" stroke="black" cx="452" cy="-460.11" rx="85.03" ry="22.63"/>
<text xml:space="preserve" text-anchor="middle" x="452" y="-462.61" font-family="Helvetica,sans-Serif" font-size="10.00">VECTORDB&#45;BRAIN UI</text>
<text xml:space="preserve" text-anchor="middle" x="452" y="-450.61" font-family="Helvetica,sans-Serif" font-size="10.00">or API client</text>
</g>
<!-- User&#45;&gt;UI -->
<g id="edge6" class="edge">
<title>User&#45;&gt;UI</title>
<path fill="none" stroke="#333333" d="M452,-524.52C452,-524.52 452,-494.68 452,-494.68"/>
<polygon fill="#333333" stroke="#333333" points="455.5,-494.68 452,-484.68 448.5,-494.68 455.5,-494.68"/>
</g>
<!-- API -->
<g id="node12" class="node">
<title>API</title>
<ellipse fill="none" stroke="black" cx="452" cy="-340.37" rx="66.47" ry="22.63"/>
<text xml:space="preserve" text-anchor="middle" x="452" y="-342.87" font-family="Helvetica,sans-Serif" font-size="10.00">Query API</text>
<text xml:space="preserve" text-anchor="middle" x="452" y="-330.87" font-family="Helvetica,sans-Serif" font-size="10.00">layer flags · filters</text>
</g>
<!-- UI&#45;&gt;API -->
<g id="edge7" class="edge">
<title>UI&#45;&gt;API</title>
<path fill="none" stroke="#333333" d="M429.84,-437.87C429.84,-437.87 429.84,-373.6 429.84,-373.6"/>
<polygon fill="#333333" stroke="#333333" points="433.34,-373.6 429.84,-363.6 426.34,-373.6 433.34,-373.6"/>
</g>
<!-- SessionEnd -->
<g id="node25" class="node">
<title>SessionEnd</title>
<polygon fill="none" stroke="black" points="995,-358.37 922.71,-340.37 995,-322.37 1067.29,-340.37 995,-358.37"/>
<text xml:space="preserve" text-anchor="middle" x="995" y="-336.87" font-family="Helvetica,sans-Serif" font-size="10.00">Session finalize</text>
</g>
<!-- UI&#45;&gt;SessionEnd -->
<g id="edge25" class="edge">
<title>UI&#45;&gt;SessionEnd</title>
<path fill="none" stroke="#333333" stroke-dasharray="5,2" d="M527.75,-449.55C527.75,-433.3 527.75,-404 527.75,-404 527.75,-404 933.74,-404 933.74,-404 933.74,-404 933.74,-354.95 933.74,-354.95"/>
<polygon fill="#333333" stroke="#333333" points="937.24,-354.95 933.74,-344.95 930.24,-354.95 937.24,-354.95"/>
<text xml:space="preserve" text-anchor="middle" x="574.75" y="-410.93" font-family="Helvetica,sans-Serif" font-size="9.00">idle / close</text>
</g>
<!-- API&#45;&gt;UI -->
<g id="edge18" class="edge">
<title>API&#45;&gt;UI</title>
<path fill="none" stroke="#333333" d="M474.16,-362.05C474.16,-362.05 474.16,-426.26 474.16,-426.26"/>
<polygon fill="#333333" stroke="#333333" points="470.66,-426.26 474.16,-436.26 477.66,-426.26 470.66,-426.26"/>
</g>
<!-- Reactive -->
<g id="node20" class="node">
<title>Reactive</title>
<ellipse fill="none" stroke="black" cx="881" cy="-946.43" rx="107.3" ry="22.63"/>
<text xml:space="preserve" text-anchor="middle" x="881" y="-948.93" font-family="Helvetica,sans-Serif" font-size="10.00">Reactive orchestrator</text>
<text xml:space="preserve" text-anchor="middle" x="881" y="-936.93" font-family="Helvetica,sans-Serif" font-size="10.00">interpret intent · select strategy</text>
</g>
<!-- API&#45;&gt;Reactive -->
<g id="edge8" class="edge">
<title>API&#45;&gt;Reactive</title>
<path fill="none" stroke="#333333" d="M515.22,-333C594.91,-333 721.63,-333 721.63,-333 721.63,-333 721.63,-954 721.63,-954 721.63,-954 767.65,-954 767.65,-954"/>
<polygon fill="#333333" stroke="#333333" points="767.65,-957.5 777.65,-954 767.65,-950.5 767.65,-957.5"/>
<text xml:space="preserve" text-anchor="middle" x="286.88" y="-622.38" font-family="Helvetica,sans-Serif" font-size="9.00">POST /query</text>
</g>
<!-- Agg -->
<g id="node23" class="node">
<title>Agg</title>
<path fill="none" stroke="black" d="M850.75,-137C850.75,-139.21 825.31,-141 794,-141 762.69,-141 737.25,-139.21 737.25,-137 737.25,-137 737.25,-101 737.25,-101 737.25,-98.79 762.69,-97 794,-97 825.31,-97 850.75,-98.79 850.75,-101 850.75,-101 850.75,-137 850.75,-137"/>
<path fill="none" stroke="black" d="M850.75,-137C850.75,-134.79 825.31,-133 794,-133 762.69,-133 737.25,-134.79 737.25,-137"/>
<text xml:space="preserve" text-anchor="middle" x="794" y="-121.5" font-family="Helvetica,sans-Serif" font-size="10.00">Materialized views</text>
<text xml:space="preserve" text-anchor="middle" x="794" y="-109.5" font-family="Helvetica,sans-Serif" font-size="10.00">(theme · entity rollups)</text>
</g>
<!-- API&#45;&gt;Agg -->
<g id="edge24" class="edge">
<title>API&#45;&gt;Agg</title>
<path fill="none" stroke="#333333" stroke-dasharray="5,2" d="M452,-317.64C452,-259.87 452,-112 452,-112 452,-112 725.24,-112 725.24,-112"/>
<polygon fill="#333333" stroke="#333333" points="725.24,-115.5 735.24,-112 725.24,-108.5 725.24,-115.5"/>
<text xml:space="preserve" text-anchor="middle" x="529.25" y="-231.58" font-family="Helvetica,sans-Serif" font-size="9.00">drill&#45;down</text>
<text xml:space="preserve" text-anchor="middle" x="529.25" y="-221.08" font-family="Helvetica,sans-Serif" font-size="9.00">(planned)</text>
</g>
<!-- QEncode -->
<g id="node13" class="node">
<title>QEncode</title>
<ellipse fill="none" stroke="#1b5e20" stroke-width="2" cx="1003" cy="-715.56" rx="102.53" ry="23.16"/>
<text xml:space="preserve" text-anchor="middle" x="1003" y="-718.43" font-family="Helvetica,sans-Serif" font-size="10.00">ColBERT query encoder</text>
<text xml:space="preserve" text-anchor="middle" x="1003" y="-706.43" font-family="Helvetica,sans-Serif" font-size="10.00">q → multivectors q₁…qₘ</text>
</g>
<!-- QEncode&#45;&gt;MaxSim -->
<g id="edge12" class="edge">
<title>QEncode&#45;&gt;MaxSim</title>
<path fill="none" stroke="#333333" d="M922.62,-700.41C922.62,-676.58 922.62,-633 922.62,-633 922.62,-633 722.4,-633 722.4,-633"/>
<polygon fill="#333333" stroke="#333333" points="722.4,-629.5 712.4,-633 722.4,-636.5 722.4,-629.5"/>
</g>
<!-- SessionCache -->
<g id="node18" class="node">
<title>SessionCache</title>
<path fill="none" stroke="black" stroke-dasharray="5,2" d="M1555.12,-358.37C1555.12,-360.57 1521.45,-362.37 1480,-362.37 1438.55,-362.37 1404.88,-360.57 1404.88,-358.37 1404.88,-358.37 1404.88,-322.37 1404.88,-322.37 1404.88,-320.16 1438.55,-318.37 1480,-318.37 1521.45,-318.37 1555.12,-320.16 1555.12,-322.37 1555.12,-322.37 1555.12,-358.37 1555.12,-358.37"/>
<path fill="none" stroke="black" stroke-dasharray="5,2" d="M1555.12,-358.37C1555.12,-356.16 1521.45,-354.37 1480,-354.37 1438.55,-354.37 1404.88,-356.16 1404.88,-358.37"/>
<text xml:space="preserve" text-anchor="middle" x="1480" y="-342.87" font-family="Helvetica,sans-Serif" font-size="10.00">Session rerank cache</text>
<text xml:space="preserve" text-anchor="middle" x="1480" y="-330.87" font-family="Helvetica,sans-Serif" font-size="10.00">(query_id → top&#45;k token maps)</text>
</g>
<!-- QEncode&#45;&gt;SessionCache -->
<g id="edge20" class="edge">
<title>QEncode&#45;&gt;SessionCache</title>
<path fill="none" stroke="#1565c0" stroke-dasharray="5,2" d="M1106.5,-716C1246.79,-716 1480,-716 1480,-716 1480,-716 1480,-374.25 1480,-374.25"/>
<polygon fill="#1565c0" stroke="#1565c0" points="1483.5,-374.25 1480,-364.25 1476.5,-374.25 1483.5,-374.25"/>
<text xml:space="preserve" text-anchor="middle" x="1063.25" y="-539.59" font-family="Helvetica,sans-Serif" font-size="9.00">cache query reps</text>
</g>
<!-- MaxSim&#45;&gt;Rerank -->
<g id="edge14" class="edge">
<title>MaxSim&#45;&gt;Rerank</title>
<path fill="none" stroke="#333333" d="M710.19,-618C728.21,-618 741.43,-618 741.43,-618 741.43,-618 741.43,-564.85 741.43,-564.85"/>
<polygon fill="#333333" stroke="#333333" points="744.93,-564.85 741.43,-554.85 737.93,-564.85 744.93,-564.85"/>
</g>
<!-- Hits -->
<g id="node16" class="node">
<title>Hits</title>
<ellipse fill="none" stroke="black" cx="635" cy="-460.11" rx="80.26" ry="22.63"/>
<text xml:space="preserve" text-anchor="middle" x="635" y="-462.61" font-family="Helvetica,sans-Serif" font-size="10.00">Ranked chunk hits</text>
<text xml:space="preserve" text-anchor="middle" x="635" y="-450.61" font-family="Helvetica,sans-Serif" font-size="10.00">+ scores · provenance</text>
</g>
<!-- Rerank&#45;&gt;Hits -->
<g id="edge16" class="edge">
<title>Rerank&#45;&gt;Hits</title>
<path fill="none" stroke="#333333" d="M730.52,-543C681.81,-543 634.93,-543 634.93,-543 634.93,-543 634.93,-494.71 634.93,-494.71"/>
<polygon fill="#333333" stroke="#333333" points="638.43,-494.71 634.93,-484.71 631.43,-494.71 638.43,-494.71"/>
</g>
<!-- Hits&#45;&gt;API -->
<g id="edge17" class="edge">
<title>Hits&#45;&gt;API</title>
<path fill="none" stroke="#333333" d="M608.25,-438.49C608.25,-405.91 608.25,-348 608.25,-348 608.25,-348 526.62,-348 526.62,-348"/>
<polygon fill="#333333" stroke="#333333" points="526.62,-344.5 516.62,-348 526.62,-351.5 526.62,-344.5"/>
</g>
<!-- SessionLog -->
<g id="node17" class="node">
<title>SessionLog</title>
<path fill="none" stroke="black" d="M1258.75,-358.37C1258.75,-360.57 1221.21,-362.37 1175,-362.37 1128.79,-362.37 1091.25,-360.57 1091.25,-358.37 1091.25,-358.37 1091.25,-322.37 1091.25,-322.37 1091.25,-320.16 1128.79,-318.37 1175,-318.37 1221.21,-318.37 1258.75,-320.16 1258.75,-322.37 1258.75,-322.37 1258.75,-358.37 1258.75,-358.37"/>
<path fill="none" stroke="black" d="M1258.75,-358.37C1258.75,-356.16 1221.21,-354.37 1175,-354.37 1128.79,-354.37 1091.25,-356.16 1091.25,-358.37"/>
<text xml:space="preserve" text-anchor="middle" x="1175" y="-342.87" font-family="Helvetica,sans-Serif" font-size="10.00">Episodic trace</text>
<text xml:space="preserve" text-anchor="middle" x="1175" y="-330.87" font-family="Helvetica,sans-Serif" font-size="10.00">queries · clicks · ColBERT hit sets</text>
</g>
<!-- Hits&#45;&gt;SessionLog -->
<g id="edge19" class="edge">
<title>Hits&#45;&gt;SessionLog</title>
<path fill="none" stroke="#1565c0" stroke-dasharray="5,2" d="M715.72,-460C848.48,-460 1098.39,-460 1098.39,-460 1098.39,-460 1098.39,-372.72 1098.39,-372.72"/>
<polygon fill="#1565c0" stroke="#1565c0" points="1101.89,-372.72 1098.39,-362.72 1094.89,-372.72 1101.89,-372.72"/>
<text xml:space="preserve" text-anchor="middle" x="840" y="-410.93" font-family="Helvetica,sans-Serif" font-size="9.00">append trace</text>
</g>
<!-- Hits&#45;&gt;Agg -->
<g id="edge22" class="edge">
<title>Hits&#45;&gt;Agg</title>
<path fill="none" stroke="#455a64" stroke-dasharray="5,2" d="M661.75,-438.44C661.75,-364.41 661.75,-126 661.75,-126 661.75,-126 725.25,-126 725.25,-126"/>
<polygon fill="#455a64" stroke="#455a64" points="725.25,-129.5 735.25,-126 725.25,-122.5 725.25,-129.5"/>
<text xml:space="preserve" text-anchor="middle" x="664.62" y="-282.7" font-family="Helvetica,sans-Serif" font-size="9.00">boost / explain</text>
<text xml:space="preserve" text-anchor="middle" x="664.62" y="-272.2" font-family="Helvetica,sans-Serif" font-size="9.00">(planned)</text>
</g>
<!-- SessionLog&#45;&gt;Dream -->
<g id="edge27" class="edge">
<title>SessionLog&#45;&gt;Dream</title>
<path fill="none" stroke="#333333" stroke-dasharray="5,2" d="M1175,-317.94C1175,-287.54 1175,-237 1175,-237 1175,-237 1073.92,-237 1073.92,-237"/>
<polygon fill="#333333" stroke="#333333" points="1073.92,-233.5 1063.92,-237 1073.92,-240.5 1073.92,-233.5"/>
</g>
<!-- Promoted -->
<g id="node19" class="node">
<title>Promoted</title>
<path fill="none" stroke="black" stroke-dasharray="5,2" d="M1387.25,-358.37C1387.25,-360.57 1362.49,-362.37 1332,-362.37 1301.51,-362.37 1276.75,-360.57 1276.75,-358.37 1276.75,-358.37 1276.75,-322.37 1276.75,-322.37 1276.75,-320.16 1301.51,-318.37 1332,-318.37 1362.49,-318.37 1387.25,-320.16 1387.25,-322.37 1387.25,-322.37 1387.25,-358.37 1387.25,-358.37"/>
<path fill="none" stroke="black" stroke-dasharray="5,2" d="M1387.25,-358.37C1387.25,-356.16 1362.49,-354.37 1332,-354.37 1301.51,-354.37 1276.75,-356.16 1276.75,-358.37"/>
<text xml:space="preserve" text-anchor="middle" x="1332" y="-342.87" font-family="Helvetica,sans-Serif" font-size="10.00">Promoted artifacts</text>
<text xml:space="preserve" text-anchor="middle" x="1332" y="-330.87" font-family="Helvetica,sans-Serif" font-size="10.00">(read&#45;only after close)</text>
</g>
<!-- Promoted&#45;&gt;Dream -->
<g id="edge33" class="edge">
<title>Promoted&#45;&gt;Dream</title>
<path fill="none" stroke="#333333" stroke-dasharray="5,2" d="M1332,-318.1C1332,-283.82 1332,-222 1332,-222 1332,-222 1073.72,-222 1073.72,-222"/>
<polygon fill="#333333" stroke="#333333" points="1073.72,-218.5 1063.72,-222 1073.72,-225.5 1073.72,-218.5"/>
<text xml:space="preserve" text-anchor="middle" x="1255.12" y="-277.45" font-family="Helvetica,sans-Serif" font-size="9.00">L2 durable</text>
</g>
<!-- Reactive&#45;&gt;SessionLog -->
<g id="edge21" class="edge">
<title>Reactive&#45;&gt;SessionLog</title>
<path fill="none" stroke="#333333" stroke-dasharray="5,2" d="M988.52,-946C1068.29,-946 1163.28,-946 1163.28,-946 1163.28,-946 1163.28,-374.15 1163.28,-374.15"/>
<polygon fill="#333333" stroke="#333333" points="1166.78,-374.15 1163.28,-364.15 1159.78,-374.15 1166.78,-374.15"/>
<text xml:space="preserve" text-anchor="middle" x="1189.62" y="-622.38" font-family="Helvetica,sans-Serif" font-size="9.00">policy · filters</text>
</g>
<!-- Strategy -->
<g id="node21" class="node">
<title>Strategy</title>
<polygon fill="none" stroke="#6a1b9a" stroke-width="2" points="881,-866.81 754.75,-834.81 881,-802.81 1007.25,-834.81 881,-866.81"/>
<text xml:space="preserve" text-anchor="middle" x="881" y="-837.31" font-family="Helvetica,sans-Serif" font-size="10.00">Retrieval policy?</text>
<text xml:space="preserve" text-anchor="middle" x="881" y="-825.31" font-family="Helvetica,sans-Serif" font-size="10.00">ColBERT | dense | hybrid</text>
</g>
<!-- Reactive&#45;&gt;Strategy -->
<g id="edge9" class="edge">
<title>Reactive&#45;&gt;Strategy</title>
<path fill="none" stroke="#333333" d="M881,-923.57C881,-923.57 881,-879.31 881,-879.31"/>
<polygon fill="#333333" stroke="#333333" points="884.5,-879.31 881,-869.31 877.5,-879.31 884.5,-879.31"/>
</g>
<!-- Strategy&#45;&gt;DenseIdx -->
<g id="edge11" class="edge">
<title>Strategy&#45;&gt;DenseIdx</title>
<path fill="none" stroke="#333333" stroke-dasharray="5,2" d="M818.56,-817.72C818.56,-817.72 818.56,-757.5 818.56,-757.5"/>
<polygon fill="#333333" stroke="#333333" points="822.06,-757.5 818.56,-747.5 815.06,-757.5 822.06,-757.5"/>
<text xml:space="preserve" text-anchor="middle" x="868.88" y="-776.26" font-family="Helvetica,sans-Serif" font-size="9.00">dense path</text>
<text xml:space="preserve" text-anchor="middle" x="868.88" y="-765.76" font-family="Helvetica,sans-Serif" font-size="9.00">[fallback]</text>
</g>
<!-- Strategy&#45;&gt;QEncode -->
<g id="edge10" class="edge">
<title>Strategy&#45;&gt;QEncode</title>
<path fill="none" stroke="#1b5e20" stroke-width="2" d="M953.86,-820.66C953.86,-820.66 953.86,-749.52 953.86,-749.52"/>
<polygon fill="#1b5e20" stroke="#1b5e20" stroke-width="2" points="957.36,-749.52 953.86,-739.52 950.36,-749.52 957.36,-749.52"/>
<text xml:space="preserve" text-anchor="middle" x="973.88" y="-771.01" font-family="Helvetica,sans-Serif" font-size="9.00">ColBERT path</text>
</g>
<!-- L3Graph -->
<g id="node22" class="node">
<title>L3Graph</title>
<path fill="none" stroke="black" d="M864,-56C864,-58.21 833.52,-60 796,-60 758.48,-60 728,-58.21 728,-56 728,-56 728,-20 728,-20 728,-17.79 758.48,-16 796,-16 833.52,-16 864,-17.79 864,-20 864,-20 864,-56 864,-56"/>
<path fill="none" stroke="black" d="M864,-56C864,-53.79 833.52,-52 796,-52 758.48,-52 728,-53.79 728,-56"/>
<text xml:space="preserve" text-anchor="middle" x="796" y="-40.5" font-family="Helvetica,sans-Serif" font-size="10.00">Relationship graph</text>
<text xml:space="preserve" text-anchor="middle" x="796" y="-28.5" font-family="Helvetica,sans-Serif" font-size="10.00">edges · consistency scores</text>
</g>
<!-- Agg&#45;&gt;L3Graph -->
<g id="edge23" class="edge">
<title>Agg&#45;&gt;L3Graph</title>
<path fill="none" stroke="#333333" stroke-dasharray="5,2" d="M794,-96.87C794,-96.87 794,-71.9 794,-71.9"/>
<polygon fill="#333333" stroke="#333333" points="797.5,-71.9 794,-61.9 790.5,-71.9 797.5,-71.9"/>
</g>
<!-- Audit -->
<g id="node24" class="node">
<title>Audit</title>
<path fill="none" stroke="black" d="M989.12,-137C989.12,-139.21 962.18,-141 929,-141 895.82,-141 868.88,-139.21 868.88,-137 868.88,-137 868.88,-101 868.88,-101 868.88,-98.79 895.82,-97 929,-97 962.18,-97 989.12,-98.79 989.12,-101 989.12,-101 989.12,-137 989.12,-137"/>
<path fill="none" stroke="black" d="M989.12,-137C989.12,-134.79 962.18,-133 929,-133 895.82,-133 868.88,-134.79 868.88,-137"/>
<text xml:space="preserve" text-anchor="middle" x="929" y="-121.5" font-family="Helvetica,sans-Serif" font-size="10.00" fill="white">Audit trail</text>
<text xml:space="preserve" text-anchor="middle" x="929" y="-109.5" font-family="Helvetica,sans-Serif" font-size="10.00" fill="white">score_model · colbert_v</text>
</g>
<!-- SessionEnd&#45;&gt;Dream -->
<g id="edge26" class="edge">
<title>SessionEnd&#45;&gt;Dream</title>
<path fill="none" stroke="#333333" stroke-dasharray="5,2" d="M994.7,-322.08C994.7,-322.08 994.7,-263.67 994.7,-263.67"/>
<polygon fill="#333333" stroke="#333333" points="998.2,-263.67 994.7,-253.67 991.2,-263.67 998.2,-263.67"/>
</g>
<!-- Dream&#45;&gt;L3Graph -->
<g id="edge31" class="edge">
<title>Dream&#45;&gt;L3Graph</title>
<path fill="none" stroke="#333333" stroke-dasharray="5,2" d="M890.96,-230C873.06,-230 859.58,-230 859.58,-230 859.58,-230 859.58,-70.43 859.58,-70.43"/>
<polygon fill="#333333" stroke="#333333" points="863.08,-70.43 859.58,-60.43 856.08,-70.43 863.08,-70.43"/>
<text xml:space="preserve" text-anchor="middle" x="1052.75" y="-115.7" font-family="Helvetica,sans-Serif" font-size="9.00">merge scores</text>
</g>
<!-- Dream&#45;&gt;Audit -->
<g id="edge32" class="edge">
<title>Dream&#45;&gt;Audit</title>
<path fill="none" stroke="#333333" stroke-dasharray="5,2" d="M940.22,-209.08C940.22,-209.08 940.22,-152.85 940.22,-152.85"/>
<polygon fill="#333333" stroke="#333333" points="943.72,-152.85 940.22,-142.85 936.72,-152.85 943.72,-152.85"/>
</g>
<!-- ColBERTSim&#45;&gt;L3Graph -->
<g id="edge30" class="edge">
<title>ColBERTSim&#45;&gt;L3Graph</title>
<path fill="none" stroke="#333333" stroke-dasharray="5,2" d="M855.17,-311.1C855.17,-311.1 855.17,-70.48 855.17,-70.48"/>
<polygon fill="#333333" stroke="#333333" points="858.67,-70.48 855.17,-60.48 851.67,-70.48 858.67,-70.48"/>
<text xml:space="preserve" text-anchor="middle" x="739.75" y="-180.45" font-family="Helvetica,sans-Serif" font-size="9.00">propose edges</text>
</g>
</g>
</svg>
